<svg xmlns="http://www.w3.org/2000/svg" width="64.956" height="60" viewBox="0 0 64.956 60"><defs><style>.a{fill:none;}.b{fill:#ffaa0a;}.c{fill:#00afbe;}</style></defs><g transform="translate(-5.362 -9.8)"><g transform="translate(5.363 9.8)"><path class="a" d="M41.341,80.5l-14.723.166L25.4,87.253l18.542.332Z" transform="translate(-14.309 -41.367)"/><path class="a" d="M65.189,13.132,52.624,12.8,29.1,48.778l14.059-.166Z" transform="translate(-15.961 -11.139)"/><path class="a" d="M59.775,102.732a.7.7,0,0,1-.055-.332l-14.447.166L44,109.153l18.487.332Z" transform="translate(-22.614 -51.145)"/><path class="a" d="M75.2,72.9h0v.111l2.491,6.144L99.72,43.067,97.34,37.2Z" transform="translate(-36.545 -22.034)"/><path class="a" d="M56.9,50.735,59.28,57.1,81.31,21.067,78.93,15.2Z" transform="translate(-28.374 -12.211)"/><path class="b" d="M43.483,57.734a.83.83,0,0,0,.775-.609c.055-.055.055-.055.055-.111l23.137-37.86a.828.828,0,0,0,.055-.72L64.35,10.686a.856.856,0,0,0-.941-.5L49.184,9.8a.807.807,0,0,0-.72.387L23.778,47.826h0a.2.2,0,0,0-.055.166V48.1l-1.439,8.192a.727.727,0,0,0,.166.664.889.889,0,0,0,.609.277l20.424.5Zm.332-3.044-2.38-6.421,22.03-35.48,2.38,5.867Zm5.756-43.229,12.565.332-22.03,35.48-14.114.166ZM25.217,49.1l14.723-.166L42.6,56.018,24.054,55.63Z" transform="translate(-12.908 -9.8)"/><path class="c" d="M86.06,40.513l-3.155-7.749a.856.856,0,0,0-.941-.5l-5.48-.166h0a.83.83,0,1,0,0,1.661l4.151.111L58.661,69.351l-15.554.166a.983.983,0,0,0-.554.221h0l-.055.055a.054.054,0,0,1-.055.055c0,.055-.055.055-.055.111v.055c0,.055-.055.111-.055.166h0l-1.55,8.192a.727.727,0,0,0,.166.664,1.319,1.319,0,0,0,.609.332l20.424.387h0a.8.8,0,0,0,.72-.443.432.432,0,0,0,.221-.221L86.06,41.233A1.057,1.057,0,0,0,86.06,40.513ZM43.828,71.178l14.446-.166a.7.7,0,0,0,.055.332L61.042,78.1l-18.487-.332Zm18.487,5.646-2.491-6.144a.054.054,0,0,0-.055-.055h0l22.14-35.756,2.38,5.867Z" transform="translate(-21.168 -19.757)"/><path class="c" d="M23.76,95.713a.83.83,0,1,0,0-1.661h0L9.2,94.218l3.653-5.48a.837.837,0,1,0-1.384-.941L6.933,94.606h0c-.055.055-.055.111-.111.166v.111l-1.439,8.192a.727.727,0,0,0,.166.664,1.319,1.319,0,0,0,.609.332l15.664.387h0a.83.83,0,1,0,0-1.661l-14.668-.332,1.162-6.587Z" transform="translate(-5.363 -44.458)"/></g></g></svg>