<svg xmlns="http://www.w3.org/2000/svg" width="54.272" height="55" viewBox="0 0 54.272 55"><defs><style>.a{fill:#00afbe;}.b{fill:#ffaa0a;}</style></defs><g transform="translate(-4.362 -4)"><path class="a" d="M4.362,16.761A12.76,12.76,0,1,0,17.123,4,12.775,12.775,0,0,0,4.362,16.761ZM17.123,5.875A10.886,10.886,0,1,1,6.237,16.761,10.9,10.9,0,0,1,17.123,5.875Z"/><path class="a" d="M62.839,51.167A12.76,12.76,0,1,0,75.6,63.927,12.775,12.775,0,0,0,62.839,51.167Zm0,23.646A10.886,10.886,0,1,1,73.724,63.927,10.9,10.9,0,0,1,62.839,74.813Z" transform="translate(-17.143 -17.688)"/><rect class="b" width="1.875" height="74.489" transform="translate(5.963 58.726) rotate(-135)"/></g></svg>