<svg xmlns="http://www.w3.org/2000/svg" width="75" height="65" viewBox="0 0 75 65">
  <g id="Group_2783" data-name="Group 2783" transform="translate(749 -794)">
    <g id="Group_2775" data-name="Group 2775" transform="translate(-1159.077 529.109)">
      <path id="Path_12026" data-name="Path 12026" d="M425.136,294.675a1.743,1.743,0,0,0,0,3.487h0a1.743,1.743,0,1,0,0-3.487Z" transform="translate(-0.875 -1.891)" fill="#00afbe"/>
      <path id="Path_12027" data-name="Path 12027" d="M483.948,300.433l-2.763-.329-.177-.3a43.2,43.2,0,0,0-10.175-11.922c-6.173-4.841-11.406-5.025-12.4-5.057a1.546,1.546,0,0,0-.193.007.836.836,0,0,0-.705.445,9.307,9.307,0,0,1-.6.956c-.828,1.217-3.911,5.2-8.631,5.2h-.082a10.39,10.39,0,0,1-7.813-3.321,12.64,12.64,0,0,1-1.689-2.291c-.183-.325-.31-.585-.388-.753-.086-.188-.11-.254-.11-.254a.842.842,0,0,0-.643-.528,11.548,11.548,0,0,0-1.713-.107,18.31,18.31,0,0,0-3.74.4l-.6.125-.208-.573a20.088,20.088,0,0,0-1.129-2.546c-.063-.1-.147-.237-.231-.378-.566-.949-1.013-1.7-2.345-1.844-.036.006-.161.021-.282.046a2.077,2.077,0,0,0-1.344,1.272,20.711,20.711,0,0,0-1.146,6.64l0,.37-.307.206a17.4,17.4,0,0,0-1.527,1.15,23.278,23.278,0,0,0-7.779,11.366l-.153.493h-4.169a.847.847,0,0,0-.832.839v11.48a.833.833,0,0,0,.826.827h6.486l7.619,9.788v7.979a.824.824,0,0,0,.818.832h9.508a.831.831,0,0,0,.593-.245.819.819,0,0,0,.239-.582v-4.28h23.572v4.275a.825.825,0,0,0,.821.832h10.627a.833.833,0,0,0,.833-.8l.269-8.446.233-.2a28.436,28.436,0,0,0,6.51-8.115,24.084,24.084,0,0,0,1.621-5.045,16.955,16.955,0,0,1,1.019-3.328,5.95,5.95,0,0,1,1.671-2.225,3.353,3.353,0,0,1,.349-.241l.049-.089.307-.086a.83.83,0,0,0-.1-1.63Zm-3.086,2.337a9.135,9.135,0,0,0-.7,1.223,25.264,25.264,0,0,0-1.273,4.176,18.406,18.406,0,0,1-1.335,4.148,26.808,26.808,0,0,1-4.313,5.9c-.671.705-1.249,1.233-1.627,1.57a7.525,7.525,0,0,1-.661.54.835.835,0,0,0-.314.627l-.256,8.03H461.4V324.7a.836.836,0,0,0-.834-.827H435.329a.835.835,0,0,0-.828.83v4.285h-7.834V321.55a.875.875,0,0,0-.181-.517l-8.032-10.32a.848.848,0,0,0-.662-.326h-6.054v-9.819h4.056a.821.821,0,0,0,.817-.712,9.175,9.175,0,0,1,.222-.977,21.526,21.526,0,0,1,7.253-10.562,19.778,19.778,0,0,1,2-1.451.854.854,0,0,0,.378-.665,38.669,38.669,0,0,1,.5-5.007c.089-.425.173-.786.263-1.078l.482-1.583.8,1.448a20.841,20.841,0,0,1,1.7,4.012.834.834,0,0,0,1.01.514,17.242,17.242,0,0,1,4.634-.661c.237,0,.452.007.622.019l.4.029.179.354a12.442,12.442,0,0,0,11.179,6.853c5.5-.084,8.815-3.951,10.3-6.249l.229-.354.42.036c1.578.136,5.774.864,10.643,4.67a39.914,39.914,0,0,1,7.478,7.945,39.193,39.193,0,0,1,2.615,4.108.834.834,0,0,0,.543.439l.968.246Z" transform="translate(0 -0.753)" fill="#00afbe"/>
      <path id="Path_12028" data-name="Path 12028" d="M449.954,284.2h.024a9.168,9.168,0,1,0-.024,0Zm-.011-16.656h.015l.7.036a7.508,7.508,0,0,1-.715,14.982h-.015a7.509,7.509,0,0,1,.015-15.018Z" transform="translate(-2.018 0)" fill="#ffaa0a"/>
    </g>
    <rect id="Rectangle_2974" data-name="Rectangle 2974" width="75" height="65" transform="translate(-749 794)" fill="none"/>
  </g>
</svg>
